<svg width="31" height="31" viewBox="0 0 31 31" fill="none" xmlns="http://www.w3.org/2000/svg">
<path d="M8.34317 19.6377C6.5486 20.7063 1.84334 22.8882 4.70916 25.6185C6.10908 26.9522 7.66825 27.906 9.62849 27.906H20.8141C22.7743 27.906 24.3335 26.9522 25.7334 25.6185C28.5992 22.8882 23.894 20.7063 22.0994 19.6377C17.8911 17.132 12.5514 17.132 8.34317 19.6377Z" stroke="#ffffff" stroke-width="1.52215" stroke-linecap="round" stroke-linejoin="round"/>
<path d="M20.9293 8.24498C20.9293 11.3974 18.3737 13.953 15.2212 13.953C12.0688 13.953 9.51318 11.3974 9.51318 8.24498C9.51318 5.09251 12.0688 2.53693 15.2212 2.53693C18.3737 2.53693 20.9293 5.09251 20.9293 8.24498Z" stroke="#ffffff" stroke-width="1.52215"/>
</svg>
