<svg width="40" height="40" viewBox="0 0 40 40" fill="none" xmlns="http://www.w3.org/2000/svg">
<g clip-path="url(#clip0_17001_1468)">
<path d="M33.3127 27.7973C36.3588 27.7973 38.8281 30.2666 38.8281 33.3127C38.8281 36.3587 36.3588 38.8281 33.3127 38.8281C30.2667 38.8281 27.7972 36.3587 27.7972 33.3127C27.7972 30.2666 30.2667 27.7973 33.3127 27.7973Z" stroke="#ffffff" stroke-miterlimit="10" stroke-linejoin="round"/>
<path d="M31.9588 20.6747C26.8779 25.7555 19.3647 26.4801 15.1776 22.293C10.9906 18.106 11.7152 10.5929 16.796 5.51192C21.8769 0.431059 29.3901 -0.293551 33.5772 3.89356C37.7642 8.08059 37.0396 15.5937 31.9588 20.6747Z" stroke="#ffffff" stroke-miterlimit="10" stroke-linejoin="round"/>
<path d="M9.10141 25.131L1.17188 33.0605L4.48648 36.3751L12.416 28.4456L9.10141 25.131Z" stroke="#ffffff" stroke-miterlimit="10" stroke-linejoin="round"/>
<path d="M12.6528 17.4588C12.0209 22.3998 9.10188 25.131 9.10188 25.131" stroke="#ffffff" stroke-miterlimit="10" stroke-linejoin="round"/>
<path d="M12.4169 28.446C12.4169 28.446 15.1327 25.4795 20.0564 24.8271" stroke="#ffffff" stroke-miterlimit="10" stroke-linejoin="round"/>
<path d="M13.5465 20.0574L17.7588 15.8451L18.577 15.027L22.4439 11.16L26.311 7.29303L27.1286 6.47537L31.3413 2.26264" stroke="#ffffff" stroke-miterlimit="10" stroke-linejoin="round"/>
<path d="M17.4136 23.9244L21.6258 19.7121L22.4439 18.894L26.311 15.027L30.1779 11.16L30.9955 10.3424L35.2082 6.12961" stroke="#ffffff" stroke-miterlimit="10" stroke-linejoin="round"/>
<path d="M21.3634 2.34557L24.3775 5.35963L28.2445 9.22659L32.1114 13.0936L35.1249 16.1071" stroke="#ffffff" stroke-miterlimit="10" stroke-linejoin="round"/>
<path d="M16.796 5.51212L20.5105 9.22658L24.3775 13.0936L28.2445 16.9606L31.9585 20.6746" stroke="#ffffff" stroke-miterlimit="10" stroke-linejoin="round"/>
<path d="M13.6295 10.0796L16.6435 13.0936L20.5105 16.9606L24.3775 20.8276L27.3909 23.8411" stroke="#ffffff" stroke-miterlimit="10" stroke-linejoin="round"/>
<path d="M28.2242 35.4426C29.3196 33.7988 31.1899 32.7168 33.3125 32.7168C35.436 32.7168 37.3062 33.7996 38.4008 35.4434" stroke="#ffffff" stroke-miterlimit="10" stroke-linejoin="round"/>
</g>
<defs>
<clipPath id="clip0_17001_1468">
<rect width="40" height="40" fill="white"/>
</clipPath>
</defs>
</svg>
